<svg width="25" height="24" viewBox="0 0 25 24" fill="none" xmlns="http://www.w3.org/2000/svg">
<mask id="mask0_710_4417" style="mask-type:alpha" maskUnits="userSpaceOnUse" x="0" y="0" width="25" height="24">
<rect x="0.5" width="24" height="24" fill="#D9D9D9"/>
</mask>
<g mask="url(#mask0_710_4417)">
<path d="M17.5 8.05375L6.58075 18.973C6.44225 19.1115 6.26825 19.1823 6.05875 19.1855C5.84909 19.1887 5.67184 19.1178 5.527 18.973C5.38217 18.8282 5.30975 18.6526 5.30975 18.4462C5.30975 18.2397 5.38217 18.0641 5.527 17.9193L16.4463 7H10.25C10.0375 7 9.85934 6.92808 9.7155 6.78425C9.57184 6.64042 9.5 6.46225 9.5 6.24975C9.5 6.03708 9.57184 5.859 9.7155 5.7155C9.85934 5.57183 10.0375 5.5 10.25 5.5H18.096C18.3522 5.5 18.5668 5.58667 18.74 5.76C18.9133 5.93317 19 6.14783 19 6.404V14.25C19 14.4625 18.9281 14.6407 18.7843 14.7845C18.6404 14.9282 18.4623 15 18.2498 15C18.0371 15 17.859 14.9282 17.7155 14.7845C17.5718 14.6407 17.5 14.4625 17.5 14.25V8.05375Z" fill="#00D2AA"/>
</g>
</svg>
