<svg width="40" height="40" viewBox="0 0 40 40" fill="none" xmlns="http://www.w3.org/2000/svg">
<path d="M18.8342 19.2492H21.1417V12.0954C21.1417 11.7736 21.0299 11.5008 20.8062 11.2772C20.5825 11.0533 20.3098 10.9414 19.9879 10.9414C19.6661 10.9414 19.3934 11.0533 19.1697 11.2772C18.946 11.5008 18.8342 11.7736 18.8342 12.0954V19.2492ZM12.9302 23.0569H27.0457V21.0569C27.0457 20.9671 27.0169 20.8933 26.9592 20.8357C26.9014 20.778 26.8276 20.7492 26.7379 20.7492H13.2379C13.1483 20.7492 13.0745 20.778 13.0167 20.8357C12.959 20.8933 12.9302 20.9671 12.9302 21.0569V23.0569ZM11.8072 29.0569H14.3342V26.8069C14.3342 26.5944 14.4061 26.4162 14.5499 26.2724C14.6936 26.1287 14.8718 26.0569 15.0844 26.0569C15.2971 26.0569 15.4752 26.1287 15.6187 26.2724C15.7624 26.4162 15.8342 26.5944 15.8342 26.8069V29.0569H19.2379V26.8069C19.2379 26.5944 19.3099 26.4162 19.4537 26.2724C19.5975 26.1287 19.7757 26.0569 19.9882 26.0569C20.2009 26.0569 20.3789 26.1287 20.5224 26.2724C20.6661 26.4162 20.7379 26.5944 20.7379 26.8069V29.0569H24.1417V26.8069C24.1417 26.5944 24.2136 26.4162 24.3574 26.2724C24.5013 26.1287 24.6795 26.0569 24.8922 26.0569C25.1047 26.0569 25.2828 26.1287 25.4264 26.2724C25.5699 26.4162 25.6417 26.5944 25.6417 26.8069V29.0569H28.1687C28.2712 29.0569 28.3545 29.0168 28.4187 28.9367C28.4829 28.8565 28.4989 28.7683 28.4667 28.6722L27.3514 24.5569H12.6244L11.5092 28.6722C11.477 28.7683 11.493 28.8565 11.5572 28.9367C11.6214 29.0168 11.7047 29.0569 11.8072 29.0569ZM28.2457 30.5569H11.7302C11.1635 30.5569 10.7027 30.3306 10.3477 29.8779C9.99252 29.4254 9.89186 28.9209 10.0457 28.3644L11.4302 23.2204V20.9992C11.4302 20.5133 11.6004 20.1002 11.9409 19.7597C12.2813 19.4193 12.6944 19.2492 13.1802 19.2492H17.3342V12.0954C17.3342 11.3582 17.5922 10.7316 18.1082 10.2154C18.6242 9.69941 19.2508 9.44141 19.9879 9.44141C20.7251 9.44141 21.3517 9.69941 21.8677 10.2154C22.3837 10.7316 22.6417 11.3582 22.6417 12.0954V19.2492H26.7957C27.2815 19.2492 27.6946 19.4193 28.0349 19.7597C28.3754 20.1002 28.5457 20.5133 28.5457 20.9992V23.2204L29.9302 28.3837C30.1149 28.9337 30.027 29.4334 29.6667 29.8829C29.3065 30.3322 28.8329 30.5569 28.2457 30.5569Z" fill="#1C1B1F"/>
</svg>
